<svg width="228" height="327" viewBox="0 0 228 327" fill="none" xmlns="http://www.w3.org/2000/svg">
<path d="M32.1134 304.823C32.1134 309.027 31.0472 312.333 28.915 314.741C26.7947 317.149 23.8419 318.353 20.0566 318.353C16.1874 318.353 13.1987 317.173 11.0904 314.813C8.99405 312.441 7.94589 309.099 7.94589 304.787C7.94589 300.51 9.00004 297.198 11.1083 294.85C13.2166 292.49 16.2113 291.31 20.0925 291.31C23.8659 291.31 26.8127 292.508 28.933 294.904C31.0532 297.3 32.1134 300.606 32.1134 304.823ZM11.1802 304.823C11.1802 308.38 11.9349 311.082 13.4442 312.926C14.9655 314.759 17.1697 315.676 20.0566 315.676C22.9675 315.676 25.1656 314.759 26.651 312.926C28.1364 311.094 28.8791 308.392 28.8791 304.823C28.8791 301.289 28.1364 298.612 26.651 296.791C25.1776 294.958 22.9914 294.042 20.0925 294.042C17.1816 294.042 14.9655 294.964 13.4442 296.809C11.9349 298.642 11.1802 301.313 11.1802 304.823Z" fill="#1C1E20"/>
<path d="M46.8877 318.353C45.6059 318.353 44.432 318.119 43.3659 317.652C42.3117 317.173 41.4253 316.442 40.7066 315.46H40.4909C40.6347 316.61 40.7066 317.7 40.7066 318.73V326.834H37.7238V298.3H40.1495L40.5628 300.995H40.7066C41.4732 299.917 42.3657 299.139 43.3839 298.66C44.4021 298.18 45.57 297.941 46.8877 297.941C49.4991 297.941 51.5116 298.833 52.9251 300.618C54.3506 302.403 55.0633 304.907 55.0633 308.129C55.0633 311.363 54.3386 313.879 52.8891 315.676C51.4517 317.46 49.4512 318.353 46.8877 318.353ZM46.4565 300.474C44.444 300.474 42.9886 301.031 42.0901 302.145C41.1917 303.259 40.7305 305.032 40.7066 307.464V308.129C40.7066 310.896 41.1678 312.879 42.0901 314.076C43.0125 315.262 44.4919 315.855 46.5283 315.855C48.2293 315.855 49.559 315.167 50.5173 313.789C51.4876 312.411 51.9727 310.513 51.9727 308.093C51.9727 305.637 51.4876 303.757 50.5173 302.451C49.559 301.133 48.2054 300.474 46.4565 300.474Z" fill="#1C1E20"/>
<path d="M68.7955 318.353C65.8846 318.353 63.5846 317.466 61.8956 315.694C60.2186 313.921 59.38 311.459 59.38 308.309C59.38 305.134 60.1587 302.613 61.7159 300.744C63.2852 298.875 65.3875 297.941 68.0228 297.941C70.4905 297.941 72.443 298.755 73.8805 300.385C75.318 302.002 76.0367 304.14 76.0367 306.799V308.686H62.4706C62.5305 310.998 63.1115 312.753 64.2135 313.951C65.3276 315.149 66.8908 315.747 68.9033 315.747C71.0235 315.747 73.1199 315.304 75.1922 314.418V317.077C74.1381 317.532 73.1378 317.856 72.1915 318.047C71.2571 318.251 70.1251 318.353 68.7955 318.353ZM67.9869 300.438C66.4057 300.438 65.1419 300.954 64.1956 301.984C63.2612 303.014 62.7102 304.439 62.5425 306.26H72.8383C72.8383 304.379 72.4191 302.942 71.5806 301.948C70.742 300.942 69.5441 300.438 67.9869 300.438Z" fill="#1C1E20"/>
<path d="M94.8 317.994V305.254C94.8 303.649 94.4347 302.451 93.704 301.66C92.9732 300.87 91.8293 300.474 90.272 300.474C88.2116 300.474 86.7023 301.031 85.744 302.145C84.7857 303.259 84.3065 305.098 84.3065 307.662V317.994H81.3237V298.3H83.7495L84.2346 300.995H84.3784C84.9893 300.025 85.8458 299.276 86.9479 298.749C88.0499 298.21 89.2777 297.941 90.6314 297.941C93.0032 297.941 94.788 298.516 95.9859 299.666C97.1838 300.804 97.7828 302.631 97.7828 305.146V317.994H94.8Z" fill="#1C1E20"/>
<path d="M129.128 311.004C129.128 313.316 128.29 315.119 126.613 316.412C124.936 317.706 122.66 318.353 119.785 318.353C116.67 318.353 114.274 317.952 112.597 317.149V314.202C113.675 314.657 114.849 315.017 116.119 315.28C117.389 315.544 118.647 315.676 119.893 315.676C121.929 315.676 123.462 315.292 124.492 314.526C125.523 313.747 126.038 312.669 126.038 311.291C126.038 310.381 125.852 309.638 125.481 309.063C125.121 308.476 124.51 307.937 123.648 307.446C122.797 306.955 121.498 306.398 119.749 305.775C117.305 304.901 115.556 303.864 114.502 302.667C113.46 301.469 112.939 299.905 112.939 297.977C112.939 295.952 113.699 294.341 115.221 293.143C116.742 291.945 118.755 291.346 121.258 291.346C123.87 291.346 126.271 291.826 128.463 292.784L127.511 295.443C125.343 294.533 123.235 294.078 121.186 294.078C119.569 294.078 118.305 294.425 117.395 295.12C116.485 295.815 116.029 296.779 116.029 298.013C116.029 298.923 116.197 299.672 116.532 300.259C116.868 300.834 117.431 301.367 118.221 301.858C119.024 302.337 120.246 302.87 121.887 303.457C124.642 304.439 126.535 305.494 127.565 306.62C128.607 307.746 129.128 309.207 129.128 311.004Z" fill="#1C1E20"/>
<path d="M151.234 308.129C151.234 311.339 150.425 313.849 148.808 315.658C147.191 317.454 144.957 318.353 142.106 318.353C140.345 318.353 138.782 317.94 137.416 317.113C136.05 316.287 134.996 315.101 134.254 313.555C133.511 312.01 133.14 310.201 133.14 308.129C133.14 304.919 133.942 302.421 135.547 300.636C137.152 298.839 139.381 297.941 142.232 297.941C144.987 297.941 147.173 298.857 148.79 300.69C150.419 302.523 151.234 305.002 151.234 308.129ZM136.23 308.129C136.23 310.644 136.733 312.561 137.739 313.879C138.746 315.196 140.225 315.855 142.178 315.855C144.13 315.855 145.61 315.202 146.616 313.897C147.634 312.579 148.143 310.656 148.143 308.129C148.143 305.625 147.634 303.727 146.616 302.433C145.61 301.127 144.118 300.474 142.142 300.474C140.189 300.474 138.716 301.115 137.721 302.397C136.727 303.679 136.23 305.589 136.23 308.129Z" fill="#1C1E20"/>
<path d="M159.468 298.3V311.076C159.468 312.681 159.833 313.879 160.564 314.669C161.294 315.46 162.438 315.855 163.996 315.855C166.056 315.855 167.559 315.292 168.506 314.166C169.464 313.04 169.943 311.201 169.943 308.65V298.3H172.926V317.994H170.464L170.033 315.352H169.871C169.26 316.322 168.41 317.065 167.32 317.58C166.242 318.095 165.008 318.353 163.618 318.353C161.222 318.353 159.426 317.784 158.228 316.646C157.042 315.508 156.449 313.687 156.449 311.184V298.3H159.468Z" fill="#1C1E20"/>
<path d="M188.437 297.941C189.311 297.941 190.096 298.013 190.791 298.156L190.377 300.924C189.563 300.744 188.844 300.654 188.221 300.654C186.628 300.654 185.262 301.301 184.124 302.595C182.998 303.888 182.435 305.5 182.435 307.428V317.994H179.453V298.3H181.914L182.256 301.948H182.4C183.13 300.666 184.011 299.678 185.041 298.983C186.071 298.288 187.203 297.941 188.437 297.941Z" fill="#1C1E20"/>
<path d="M202.528 318.353C199.677 318.353 197.467 317.478 195.898 315.73C194.341 313.969 193.562 311.483 193.562 308.273C193.562 304.978 194.353 302.433 195.934 300.636C197.527 298.839 199.791 297.941 202.726 297.941C203.672 297.941 204.619 298.043 205.565 298.246C206.511 298.45 207.254 298.69 207.793 298.965L206.877 301.499C206.218 301.235 205.499 301.019 204.721 300.852C203.942 300.672 203.253 300.582 202.654 300.582C198.653 300.582 196.653 303.134 196.653 308.237C196.653 310.656 197.138 312.513 198.108 313.807C199.09 315.101 200.54 315.747 202.457 315.747C204.098 315.747 205.781 315.394 207.506 314.687V317.329C206.188 318.012 204.529 318.353 202.528 318.353Z" fill="#1C1E20"/>
<path d="M220.699 318.353C217.788 318.353 215.488 317.466 213.799 315.694C212.122 313.921 211.283 311.459 211.283 308.309C211.283 305.134 212.062 302.613 213.619 300.744C215.188 298.875 217.291 297.941 219.926 297.941C222.394 297.941 224.346 298.755 225.784 300.385C227.221 302.002 227.94 304.14 227.94 306.799V308.686H214.374C214.434 310.998 215.015 312.753 216.117 313.951C217.231 315.149 218.794 315.747 220.807 315.747C222.927 315.747 225.023 315.304 227.095 314.418V317.077C226.041 317.532 225.041 317.856 224.095 318.047C223.16 318.251 222.028 318.353 220.699 318.353ZM219.89 300.438C218.309 300.438 217.045 300.954 216.099 301.984C215.164 303.014 214.613 304.439 214.446 306.26H224.742C224.742 304.379 224.322 302.942 223.484 301.948C222.645 300.942 221.447 300.438 219.89 300.438Z" fill="#1C1E20"/>
<path d="M7.99985 281.399V239.995H16.779V281.399H7.99985Z" fill="#1C1E20"/>
<path d="M36.1281 281.399H27.4906V239.995H51.2226V247.188H36.1281V257.865H50.1747V265.03H36.1281V281.399Z" fill="#1C1E20"/>
<path d="M68.3911 259.479H71.2797C73.9796 259.479 75.9997 258.95 77.3402 257.893C78.6806 256.817 79.3509 255.259 79.3509 253.22C79.3509 251.163 78.7845 249.643 77.6517 248.661C76.5378 247.679 74.7819 247.188 72.3842 247.188H68.3911V259.479ZM88.2149 252.909C88.2149 257.365 86.8178 260.772 84.0236 263.132C81.2483 265.492 77.293 266.672 72.1577 266.672H68.3911V281.399H59.612V239.995H72.8373C77.8594 239.995 81.6731 241.081 84.2785 243.252C86.9028 245.404 88.2149 248.623 88.2149 252.909Z" fill="#1C1E20"/>
<path d="M120.166 281.399H96.3212V239.995H120.166V247.188H105.1V256.279H119.119V263.472H105.1V274.149H120.166V281.399Z" fill="#1C1E20"/>
<path d="M127.5 134.5C127.5 128.977 131.977 124.5 137.5 124.5H217.5C223.023 124.5 227.5 128.977 227.5 134.5V214.5C227.5 220.023 223.023 224.5 217.5 224.5H137.5C131.977 224.5 127.5 220.023 127.5 214.5V134.5Z" fill="#2F9E41"/>
<path d="M7.5 134.5C7.5 128.977 11.9772 124.5 17.5 124.5H97.5C103.023 124.5 107.5 128.977 107.5 134.5V214.5C107.5 220.023 103.023 224.5 97.5 224.5H17.5C11.9772 224.5 7.5 220.023 7.5 214.5V134.5Z" fill="#2F9E41"/>
<path d="M127.5 14.5C127.5 8.97715 131.977 4.5 137.5 4.5H217.5C223.023 4.5 227.5 8.97715 227.5 14.5V94.5C227.5 100.023 223.023 104.5 217.5 104.5H137.5C131.977 104.5 127.5 100.023 127.5 94.5V14.5Z" fill="#2F9E41"/>
<path d="M57.4858 0C25.7949 0 0 25.0136 0 55.7727C0 78.7123 14.825 99.6061 36.8782 107.762C37.7995 108.112 38.8341 108.056 39.727 107.65C40.6199 107.229 41.3002 106.473 41.5837 105.548L52.3694 72.1541C52.8796 70.5706 52.1709 68.861 50.6828 68.0623C46.0198 65.5679 43.1285 60.8595 43.1285 55.7727C43.1285 48.0794 49.5773 41.8295 57.5 41.8295C65.4227 41.8295 71.8715 48.0794 71.8715 55.7727C71.8715 60.8595 68.9802 65.5539 64.3172 68.0623C62.8291 68.861 62.1062 70.5706 62.6306 72.1541L73.4163 105.548C73.714 106.473 74.3801 107.215 75.273 107.65C75.769 107.874 76.3076 108 76.8462 108C77.2714 108 77.7107 107.93 78.1218 107.776C100.189 99.6201 115 78.7263 115 55.7867C114.986 25.0136 89.1909 0 57.4858 0Z" fill="#C8191E"/>
</svg>
